<svg width="24" height="24" viewBox="0 0 24 24" fill="#ffffff" xmlns="http://www.w3.org/2000/svg">
<path d="M19.3797 6.42773H18.5723V10.4755H19.3797V6.42773Z" />
<path d="M18.5711 10.4766H17.7637V11.284H18.5711V10.4766Z" />
<path d="M18.5711 5.61914H17.7637V6.42658H18.5711V5.61914Z" />
<path d="M17.7639 11.2812H16.9512V12.094H17.7639V11.2812Z" />
<path d="M16.95 12.0938H16.1426V12.9012H16.95V12.0938Z" />
<path d="M16.1424 5.61914H7.23933V6.42658H5.61914V8.04676H7.23933V8.8542H8.8542V9.66695H14.5222V8.8542H16.1424V8.04676H17.7626V6.42658H16.1424V5.61914Z"/>
<path d="M17.7628 4.80664H16.1426V5.61939H17.7628V4.80664Z" />
<path d="M16.1448 12.9023H15.332V13.7151H16.1448V12.9023Z" />
<path d="M15.3309 13.7129H14.5234V14.5203H15.3309V13.7129Z" />
<path d="M14.5203 14.5234H13.7129V15.3309H14.5203V14.5234Z" />
<path d="M13.7151 15.332H12.9023V19.3798H13.7151V15.332Z" />
<path d="M12.9012 19.3789H12.0938V20.1917H12.9012V19.3789Z" />
<path d="M12.0967 20.1914H10.4766V20.9988H12.0967V20.1914Z" />
<path d="M10.4754 15.332H9.66797V20.1926H10.4754V15.332Z" />
<path d="M9.66822 14.5234H8.85547V15.3309H9.66822V14.5234Z" />
<path d="M8.85431 13.7129H8.04688V14.5203H8.85431V13.7129Z" />
<path d="M16.1433 4H7.24023V4.80744H16.1433V4Z"/>
<path d="M8.04767 12.9023H7.24023V13.7151H8.04767V12.9023Z" />
<path d="M7.24048 12.0938H6.42773V12.9012H7.24048V12.0938Z"/>
<path d="M7.23933 4.80664H5.61914V5.61939H7.23933V4.80664Z"/>
<path d="M6.42658 11.2812H5.61914V12.094H6.42658V11.2812Z"/>
<path d="M5.61994 10.4766H4.8125V11.284H5.61994V10.4766Z"/>
<path d="M5.61994 5.61914H4.8125V6.42658H5.61994V5.61914Z"/>
<path d="M4.81275 6.42773H4V10.4755H4.81275V6.42773Z"/>
</svg>
