<svg viewBox="0 0 71 57" fill="none" xmlns="http://www.w3.org/2000/svg">
<rect x="63" y="18" width="3" height="3" transform="rotate(-90 63 18)" fill="#FFFFFF"/>
<rect x="66" y="18" width="3" height="3" transform="rotate(-90 66 18)" fill="#FFFFFF"/>
<rect x="68" y="18" width="3" height="3" transform="rotate(-90 68 18)" fill="#FFFFFF"/>
<rect x="63" y="21" width="3" height="3" transform="rotate(-90 63 21)" fill="#FFFFFF"/>
<rect x="63" y="24" width="3" height="2" transform="rotate(-90 63 24)" fill="#FFFFFF"/>
<rect x="66" y="21" width="3" height="3" transform="rotate(-90 66 21)" fill="#FFFFFF"/>
<rect x="68" y="21" width="3" height="3" transform="rotate(-90 68 21)" fill="#FFFFFF"/>
<rect x="68" y="24" width="3" height="3" transform="rotate(-90 68 24)" fill="#FFFFFF"/>
<rect x="63" y="27" width="3" height="2" transform="rotate(-90 63 27)" fill="#FFFFFF"/>
<rect x="68" y="27" width="3" height="3" transform="rotate(-90 68 27)" fill="#FFFFFF"/>
<rect x="63" y="30" width="3" height="3" transform="rotate(-90 63 30)" fill="#FFFFFF"/>
<rect x="63" y="33" width="3" height="3" transform="rotate(-90 63 33)" fill="#FFFFFF"/>
<rect x="66" y="30" width="3" height="3" transform="rotate(-90 66 30)" fill="#FFFFFF"/>
<rect x="66" y="33" width="3" height="3" transform="rotate(-90 66 33)" fill="#FFFFFF"/>
<rect x="68" y="30" width="3" height="3" transform="rotate(-90 68 30)" fill="#FFFFFF"/>
<rect x="68" y="33" width="3" height="3" transform="rotate(-90 68 33)" fill="#FFFFFF"/>
<rect x="63" y="36" width="3" height="3" transform="rotate(-90 63 36)" fill="#FFFFFF"/>
<rect x="66" y="36" width="3" height="3" transform="rotate(-90 66 36)" fill="#FFFFFF"/>
<rect x="68" y="36" width="3" height="3" transform="rotate(-90 68 36)" fill="#FFFFFF"/>
<rect x="63" y="39" width="3" height="3" transform="rotate(-90 63 39)" fill="#FFFFFF"/>
<rect x="63" y="42" width="3" height="3" transform="rotate(-90 63 42)" fill="#FFFFFF"/>
<rect x="66" y="39" width="3" height="3" transform="rotate(-90 66 39)" fill="#FFFFFF"/>
<rect x="66" y="42" width="3" height="3" transform="rotate(-90 66 42)" fill="#FFFFFF"/>
<rect x="68" y="39" width="3" height="3" transform="rotate(-90 68 39)" fill="#FFFFFF"/>
<rect x="68" y="42" width="3" height="3" transform="rotate(-90 68 42)" fill="#FFFFFF"/>
<rect x="63" y="45" width="3" height="3" transform="rotate(-90 63 45)" fill="#FFFFFF"/>
<rect x="66" y="45" width="3" height="3" transform="rotate(-90 66 45)" fill="#FFFFFF"/>
<rect x="68" y="45" width="3" height="3" transform="rotate(-90 68 45)" fill="#FFFFFF"/>
<rect x="63" y="48" width="3" height="3" transform="rotate(-90 63 48)" fill="#FFFFFF"/>
<rect x="63" y="51" width="3" height="3" transform="rotate(-90 63 51)" fill="#FFFFFF"/>
<rect x="63" y="54" width="3" height="3" transform="rotate(-90 63 54)" fill="#FFFFFF"/>
<rect x="66" y="51" width="3" height="3" transform="rotate(-90 66 51)" fill="#FFFFFF"/>
<rect x="66" y="48" width="3" height="3" transform="rotate(-90 66 48)" fill="#FFFFFF"/>
<rect x="68" y="51" width="3" height="3" transform="rotate(-90 68 51)" fill="#FFFFFF"/>
<rect x="66" y="54" width="3" height="3" transform="rotate(-90 66 54)" fill="#FFFFFF"/>
<rect x="68" y="48" width="3" height="3" transform="rotate(-90 68 48)" fill="#FFFFFF"/>
<rect x="68" y="54" width="3" height="3" transform="rotate(-90 68 54)" fill="#FFFFFF"/>
<rect x="60" y="49" width="3" height="3" fill="#FFFFFF"/>
<rect x="57" y="49" width="3" height="3" fill="#FFFFFF"/>
<rect x="55" y="51" width="3" height="3" fill="#FFFFFF"/>
<rect x="52" y="51" width="3" height="3" fill="#FFFFFF"/>
<rect x="49" y="54" width="3" height="3" fill="#FFFFFF"/>
<rect x="47" y="54" width="3" height="3" fill="#FFFFFF"/>
<rect x="44" y="54" width="3" height="3" fill="#FFFFFF"/>
<rect x="41" y="54" width="3" height="3" fill="#FFFFFF"/>
<rect x="38" y="54" width="3" height="3" fill="#FFFFFF"/>
<rect x="35" y="54" width="3" height="3" fill="#FFFFFF"/>
<rect x="32" y="51" width="3" height="3" fill="#FFFFFF"/>
<rect x="29" y="51" width="3" height="3" fill="#FFFFFF"/>
<rect x="26" y="51" width="3" height="3" fill="#FFFFFF"/>
<rect x="23" y="48" width="3" height="3" fill="#FFFFFF"/>
<rect x="23" y="45" width="3" height="3" fill="#FFFFFF"/>
<rect x="23" y="43" width="3" height="3" fill="#FFFFFF"/>
<rect x="21" y="40" width="3" height="3" fill="#FFFFFF"/>
<rect x="21" y="37" width="3" height="3" fill="#FFFFFF"/>
<rect x="21" y="35" width="3" height="3" fill="#FFFFFF"/>
<rect x="18" y="32" width="3" height="3" fill="#FFFFFF"/>
<rect x="18" y="29" width="3" height="3" fill="#FFFFFF"/>
<rect x="18" y="26" width="3" height="3" fill="#FFFFFF"/>
<rect x="15" y="26" width="3" height="3" fill="#FFFFFF"/>
<rect x="12" y="26" width="3" height="3" fill="#FFFFFF"/>
<rect x="9" y="26" width="3" height="3" fill="#FFFFFF"/>
<rect x="6" y="26" width="3" height="3" fill="#FFFFFF"/>
<rect x="3" y="26" width="3" height="3" fill="#FFFFFF"/>
<rect y="23" width="3" height="3" fill="#FFFFFF"/>
<rect y="20" width="3" height="3" fill="#FFFFFF"/>
<rect x="3" y="17" width="3" height="3" fill="#FFFFFF"/>
<rect x="6" y="17" width="3" height="3" fill="#FFFFFF"/>
<rect x="9" y="17" width="3" height="3" fill="#FFFFFF"/>
<rect x="12" y="17" width="3" height="3" fill="#FFFFFF"/>
<rect x="15" y="17" width="3" height="3" fill="#FFFFFF"/>
<rect x="18" y="17" width="3" height="3" fill="#FFFFFF"/>
<rect x="21" y="17" width="3" height="3" fill="#FFFFFF"/>
<rect x="24" y="17" width="3" height="3" fill="#FFFFFF"/>
<rect x="27" y="17" width="3" height="3" fill="#FFFFFF"/>
<rect x="30" y="17" width="3" height="3" fill="#FFFFFF"/>
<rect x="33" y="17" width="3" height="3" fill="#FFFFFF"/>
<rect x="36" y="17" width="3" height="3" fill="#FFFFFF"/>
<rect x="60" y="20" width="3" height="3" fill="#FFFFFF"/>
<rect x="58" y="20" width="3" height="3" fill="#FFFFFF"/>
<rect x="55" y="18" width="3" height="3" fill="#FFFFFF"/>
<rect x="52" y="16" width="3" height="3" fill="#FFFFFF"/>
<rect x="51" y="16" width="3" height="3" fill="#FFFFFF"/>
<rect x="48" y="13" width="3" height="3" fill="#FFFFFF"/>
<rect x="45" y="10" width="3" height="3" fill="#FFFFFF"/>
<rect x="45" y="7" width="3" height="3" fill="#FFFFFF"/>
<rect x="42" y="4" width="3" height="3" fill="#FFFFFF"/>
<rect x="42" y="1" width="3" height="3" fill="#FFFFFF"/>
<rect x="42" width="3" height="3" fill="#FFFFFF"/>
<rect x="39" width="3" height="3" fill="#FFFFFF"/>
<rect x="36" width="3" height="3" fill="#FFFFFF"/>
<rect x="34" y="3" width="3" height="3" fill="#FFFFFF"/>
<rect x="34" y="6" width="3" height="3" fill="#FFFFFF"/>
<rect x="34" y="9" width="3" height="3" fill="#FFFFFF"/>
<rect x="36" y="11" width="3" height="3" fill="#FFFFFF"/>
<rect x="37" y="14" width="3" height="3" fill="#FFFFFF"/>
<rect x="39" y="17" width="3" height="3" fill="#FFFFFF"/>
<rect x="21" y="26" width="3" height="3" fill="#FFFFFF"/>
<rect x="24" y="26" width="3" height="3" fill="#FFFFFF"/>
<rect x="27" y="26" width="3" height="3" fill="#FFFFFF"/>
<rect x="24" y="35" width="3" height="3" fill="#FFFFFF"/>
<rect x="27" y="35" width="3" height="3" fill="#FFFFFF"/>
<rect x="29" y="35" width="3" height="3" fill="#FFFFFF"/>
<rect x="25" y="43" width="3" height="3" fill="#FFFFFF"/>
<rect x="28" y="43" width="3" height="3" fill="#FFFFFF"/>
<rect x="30" y="43" width="3" height="3" fill="#FFFFFF"/>
</svg>
