<svg viewBox="0 0 72 57" fill="none" xmlns="http://www.w3.org/2000/svg">
<rect width="3" height="3" transform="matrix(4.37114e-08 -1 -1 -4.37114e-08 8.5 18)" fill="#FFFFFF"/>
<rect width="3" height="3" transform="matrix(4.37114e-08 -1 -1 -4.37114e-08 5.5 18)" fill="#FFFFFF"/>
<rect width="3" height="3" transform="matrix(4.37114e-08 -1 -1 -4.37114e-08 3.5 18)" fill="#FFFFFF"/>
<rect width="3" height="3" transform="matrix(4.37114e-08 -1 -1 -4.37114e-08 8.5 21)" fill="#FFFFFF"/>
<rect width="3" height="2" transform="matrix(4.37114e-08 -1 -1 -4.37114e-08 8.5 24)" fill="#FFFFFF"/>
<rect width="3" height="3" transform="matrix(4.37114e-08 -1 -1 -4.37114e-08 5.5 21)" fill="#FFFFFF"/>
<rect width="3" height="3" transform="matrix(4.37114e-08 -1 -1 -4.37114e-08 3.5 21)" fill="#FFFFFF"/>
<rect width="3" height="3" transform="matrix(4.37114e-08 -1 -1 -4.37114e-08 3.5 24)" fill="#FFFFFF"/>
<rect width="3" height="2" transform="matrix(4.37114e-08 -1 -1 -4.37114e-08 8.5 27)" fill="#FFFFFF"/>
<rect width="3" height="3" transform="matrix(4.37114e-08 -1 -1 -4.37114e-08 3.5 27)" fill="#FFFFFF"/>
<rect width="3" height="3" transform="matrix(4.37114e-08 -1 -1 -4.37114e-08 8.5 30)" fill="#FFFFFF"/>
<rect width="3" height="3" transform="matrix(4.37114e-08 -1 -1 -4.37114e-08 8.5 33)" fill="#FFFFFF"/>
<rect width="3" height="3" transform="matrix(4.37114e-08 -1 -1 -4.37114e-08 5.5 30)" fill="#FFFFFF"/>
<rect width="3" height="3" transform="matrix(4.37114e-08 -1 -1 -4.37114e-08 5.5 33)" fill="#FFFFFF"/>
<rect width="3" height="3" transform="matrix(4.37114e-08 -1 -1 -4.37114e-08 3.5 30)" fill="#FFFFFF"/>
<rect width="3" height="3" transform="matrix(4.37114e-08 -1 -1 -4.37114e-08 3.5 33)" fill="#FFFFFF"/>
<rect width="3" height="3" transform="matrix(4.37114e-08 -1 -1 -4.37114e-08 8.5 36)" fill="#FFFFFF"/>
<rect width="3" height="3" transform="matrix(4.37114e-08 -1 -1 -4.37114e-08 5.5 36)" fill="#FFFFFF"/>
<rect width="3" height="3" transform="matrix(4.37114e-08 -1 -1 -4.37114e-08 3.5 36)" fill="#FFFFFF"/>
<rect width="3" height="3" transform="matrix(4.37114e-08 -1 -1 -4.37114e-08 8.5 39)" fill="#FFFFFF"/>
<rect width="3" height="3" transform="matrix(4.37114e-08 -1 -1 -4.37114e-08 8.5 42)" fill="#FFFFFF"/>
<rect width="3" height="3" transform="matrix(4.37114e-08 -1 -1 -4.37114e-08 5.5 39)" fill="#FFFFFF"/>
<rect width="3" height="3" transform="matrix(4.37114e-08 -1 -1 -4.37114e-08 5.5 42)" fill="#FFFFFF"/>
<rect width="3" height="3" transform="matrix(4.37114e-08 -1 -1 -4.37114e-08 3.5 39)" fill="#FFFFFF"/>
<rect width="3" height="3" transform="matrix(4.37114e-08 -1 -1 -4.37114e-08 3.5 42)" fill="#FFFFFF"/>
<rect width="3" height="3" transform="matrix(4.37114e-08 -1 -1 -4.37114e-08 8.5 45)" fill="#FFFFFF"/>
<rect width="3" height="3" transform="matrix(4.37114e-08 -1 -1 -4.37114e-08 5.5 45)" fill="#FFFFFF"/>
<rect width="3" height="3" transform="matrix(4.37114e-08 -1 -1 -4.37114e-08 3.5 45)" fill="#FFFFFF"/>
<rect width="3" height="3" transform="matrix(4.37114e-08 -1 -1 -4.37114e-08 8.5 48)" fill="#FFFFFF"/>
<rect width="3" height="3" transform="matrix(4.37114e-08 -1 -1 -4.37114e-08 8.5 51)" fill="#FFFFFF"/>
<rect width="3" height="3" transform="matrix(4.37114e-08 -1 -1 -4.37114e-08 8.5 54)" fill="#FFFFFF"/>
<rect width="3" height="3" transform="matrix(4.37114e-08 -1 -1 -4.37114e-08 5.5 51)" fill="#FFFFFF"/>
<rect width="3" height="3" transform="matrix(4.37114e-08 -1 -1 -4.37114e-08 5.5 48)" fill="#FFFFFF"/>
<rect width="3" height="3" transform="matrix(4.37114e-08 -1 -1 -4.37114e-08 3.5 51)" fill="#FFFFFF"/>
<rect width="3" height="3" transform="matrix(4.37114e-08 -1 -1 -4.37114e-08 5.5 54)" fill="#FFFFFF"/>
<rect width="3" height="3" transform="matrix(4.37114e-08 -1 -1 -4.37114e-08 3.5 48)" fill="#FFFFFF"/>
<rect width="3" height="3" transform="matrix(4.37114e-08 -1 -1 -4.37114e-08 3.5 54)" fill="#FFFFFF"/>
<rect width="3" height="3" transform="matrix(-1 0 0 1 11.5 49)" fill="#FFFFFF"/>
<rect width="3" height="3" transform="matrix(-1 0 0 1 14.5 49)" fill="#FFFFFF"/>
<rect width="3" height="3" transform="matrix(-1 0 0 1 16.5 51)" fill="#FFFFFF"/>
<rect width="3" height="3" transform="matrix(-1 0 0 1 19.5 51)" fill="#FFFFFF"/>
<rect width="3" height="3" transform="matrix(-1 0 0 1 22.5 54)" fill="#FFFFFF"/>
<rect width="3" height="3" transform="matrix(-1 0 0 1 24.5 54)" fill="#FFFFFF"/>
<rect width="3" height="3" transform="matrix(-1 0 0 1 27.5 54)" fill="#FFFFFF"/>
<rect width="3" height="3" transform="matrix(-1 0 0 1 30.5 54)" fill="#FFFFFF"/>
<rect width="3" height="3" transform="matrix(-1 0 0 1 33.5 54)" fill="#FFFFFF"/>
<rect width="3" height="3" transform="matrix(-1 0 0 1 36.5 54)" fill="#FFFFFF"/>
<rect width="3" height="3" transform="matrix(-1 0 0 1 39.5 51)" fill="#FFFFFF"/>
<rect width="3" height="3" transform="matrix(-1 0 0 1 42.5 51)" fill="#FFFFFF"/>
<rect width="3" height="3" transform="matrix(-1 0 0 1 45.5 51)" fill="#FFFFFF"/>
<rect width="3" height="3" transform="matrix(-1 0 0 1 48.5 48)" fill="#FFFFFF"/>
<rect width="3" height="3" transform="matrix(-1 0 0 1 48.5 45)" fill="#FFFFFF"/>
<rect width="3" height="3" transform="matrix(-1 0 0 1 48.5 43)" fill="#FFFFFF"/>
<rect width="3" height="3" transform="matrix(-1 0 0 1 50.5 40)" fill="#FFFFFF"/>
<rect width="3" height="3" transform="matrix(-1 0 0 1 50.5 37)" fill="#FFFFFF"/>
<rect width="3" height="3" transform="matrix(-1 0 0 1 50.5 35)" fill="#FFFFFF"/>
<rect width="3" height="3" transform="matrix(-1 0 0 1 53.5 32)" fill="#FFFFFF"/>
<rect width="3" height="3" transform="matrix(-1 0 0 1 53.5 29)" fill="#FFFFFF"/>
<rect width="3" height="3" transform="matrix(-1 0 0 1 53.5 26)" fill="#FFFFFF"/>
<rect width="3" height="3" transform="matrix(-1 0 0 1 56.5 26)" fill="#FFFFFF"/>
<rect width="3" height="3" transform="matrix(-1 0 0 1 59.5 26)" fill="#FFFFFF"/>
<rect width="3" height="3" transform="matrix(-1 0 0 1 62.5 26)" fill="#FFFFFF"/>
<rect width="3" height="3" transform="matrix(-1 0 0 1 65.5 26)" fill="#FFFFFF"/>
<rect width="3" height="3" transform="matrix(-1 0 0 1 68.5 26)" fill="#FFFFFF"/>
<rect width="3" height="3" transform="matrix(-1 0 0 1 71.5 23)" fill="#FFFFFF"/>
<rect width="3" height="3" transform="matrix(-1 0 0 1 71.5 20)" fill="#FFFFFF"/>
<rect width="3" height="3" transform="matrix(-1 0 0 1 68.5 17)" fill="#FFFFFF"/>
<rect width="3" height="3" transform="matrix(-1 0 0 1 65.5 17)" fill="#FFFFFF"/>
<rect width="3" height="3" transform="matrix(-1 0 0 1 62.5 17)" fill="#FFFFFF"/>
<rect width="3" height="3" transform="matrix(-1 0 0 1 59.5 17)" fill="#FFFFFF"/>
<rect width="3" height="3" transform="matrix(-1 0 0 1 56.5 17)" fill="#FFFFFF"/>
<rect width="3" height="3" transform="matrix(-1 0 0 1 53.5 17)" fill="#FFFFFF"/>
<rect width="3" height="3" transform="matrix(-1 0 0 1 50.5 17)" fill="#FFFFFF"/>
<rect width="3" height="3" transform="matrix(-1 0 0 1 47.5 17)" fill="#FFFFFF"/>
<rect width="3" height="3" transform="matrix(-1 0 0 1 44.5 17)" fill="#FFFFFF"/>
<rect width="3" height="3" transform="matrix(-1 0 0 1 41.5 17)" fill="#FFFFFF"/>
<rect width="3" height="3" transform="matrix(-1 0 0 1 38.5 17)" fill="#FFFFFF"/>
<rect width="3" height="3" transform="matrix(-1 0 0 1 35.5 17)" fill="#FFFFFF"/>
<rect width="3" height="3" transform="matrix(-1 0 0 1 11.5 20)" fill="#FFFFFF"/>
<rect width="3" height="3" transform="matrix(-1 0 0 1 13.5 20)" fill="#FFFFFF"/>
<rect width="3" height="3" transform="matrix(-1 0 0 1 16.5 18)" fill="#FFFFFF"/>
<rect width="3" height="3" transform="matrix(-1 0 0 1 19.5 16)" fill="#FFFFFF"/>
<rect width="3" height="3" transform="matrix(-1 0 0 1 20.5 16)" fill="#FFFFFF"/>
<rect width="3" height="3" transform="matrix(-1 0 0 1 23.5 13)" fill="#FFFFFF"/>
<rect width="3" height="3" transform="matrix(-1 0 0 1 26.5 10)" fill="#FFFFFF"/>
<rect width="3" height="3" transform="matrix(-1 0 0 1 26.5 7)" fill="#FFFFFF"/>
<rect width="3" height="3" transform="matrix(-1 0 0 1 29.5 4)" fill="#FFFFFF"/>
<rect width="3" height="3" transform="matrix(-1 0 0 1 29.5 1)" fill="#FFFFFF"/>
<rect width="3" height="3" transform="matrix(-1 0 0 1 29.5 0)" fill="#FFFFFF"/>
<rect width="3" height="3" transform="matrix(-1 0 0 1 32.5 0)" fill="#FFFFFF"/>
<rect width="3" height="3" transform="matrix(-1 0 0 1 35.5 0)" fill="#FFFFFF"/>
<rect width="3" height="3" transform="matrix(-1 0 0 1 37.5 3)" fill="#FFFFFF"/>
<rect width="3" height="3" transform="matrix(-1 0 0 1 37.5 6)" fill="#FFFFFF"/>
<rect width="3" height="3" transform="matrix(-1 0 0 1 37.5 9)" fill="#FFFFFF"/>
<rect width="3" height="3" transform="matrix(-1 0 0 1 35.5 11)" fill="#FFFFFF"/>
<rect width="3" height="3" transform="matrix(-1 0 0 1 34.5 14)" fill="#FFFFFF"/>
<rect width="3" height="3" transform="matrix(-1 0 0 1 32.5 17)" fill="#FFFFFF"/>
<rect width="3" height="3" transform="matrix(-1 0 0 1 50.5 26)" fill="#FFFFFF"/>
<rect width="3" height="3" transform="matrix(-1 0 0 1 47.5 26)" fill="#FFFFFF"/>
<rect width="3" height="3" transform="matrix(-1 0 0 1 44.5 26)" fill="#FFFFFF"/>
<rect width="3" height="3" transform="matrix(-1 0 0 1 47.5 35)" fill="#FFFFFF"/>
<rect width="3" height="3" transform="matrix(-1 0 0 1 44.5 35)" fill="#FFFFFF"/>
<rect width="3" height="3" transform="matrix(-1 0 0 1 42.5 35)" fill="#FFFFFF"/>
<rect width="3" height="3" transform="matrix(-1 0 0 1 46.5 43)" fill="#FFFFFF"/>
<rect width="3" height="3" transform="matrix(-1 0 0 1 43.5 43)" fill="#FFFFFF"/>
<rect width="3" height="3" transform="matrix(-1 0 0 1 41.5 43)" fill="#FFFFFF"/>
</svg>
