<svg width="32" height="32" viewBox="0 0 32 32" fill="none" xmlns="http://www.w3.org/2000/svg">
<path d="M32.0007 28.9482H28.9507V30.4782H32.0007V28.9482Z" fill="rgba(255, 255, 255, 1)"/>
<path d="M28.9497 30.4795H27.4297V31.9995H28.9497V30.4795Z" fill="rgba(255, 255, 255, 1)"/>
<path d="M27.4299 19.8093H25.8999V21.3293H27.4299V22.8593H28.9499V15.2393H27.4299V19.8093Z" fill="white"/>
<path d="M27.4304 28.9482H24.3804V30.4782H27.4304V28.9482Z" fill="white"/>
<path d="M27.4298 13.7188H25.8998V15.2387H27.4298V13.7188Z" fill="white"/>
<path d="M24.3796 27.4268H21.3296V28.9468H24.3796V27.4268Z" fill="white"/>
<path d="M22.8594 21.3301H24.3794V19.8101H25.8994V18.2901H24.3794V13.7201H25.8994V12.1901H24.3794V7.62012H22.8594V21.3301Z" fill="white"/>
<path d="M21.3301 30.4795H19.8101V31.9995H21.3301V30.4795Z" fill="white"/>
<path d="M21.3301 18.292H19.8101V19.812H21.3301V18.292Z" fill="white"/>
<path d="M21.3301 15.2393H19.8101V16.7593H21.3301V15.2393Z" fill="white"/>
<path d="M19.8098 27.4268H18.2798V30.4768H19.8098V27.4268Z" fill="white"/>
<path d="M19.8095 24.3799H13.7095V25.9099H19.8095V24.3799Z" fill="white"/>
<path d="M19.8098 1.52051H18.2798V3.05051H19.8098V1.52051Z" fill="white"/>
<path d="M18.2796 0H15.2396V1.52H18.2796V0Z" fill="white"/>
<path d="M19.8095 9.14012H18.2795V7.62012H15.2395V9.14012H16.7595V10.6701H15.2395V9.14012H13.7095V12.1901H15.2395V13.7201H18.2795V12.1901H19.8095V9.14012Z" fill="white"/>
<path d="M15.2395 27.4268H13.7095V30.4768H15.2395V27.4268Z" fill="white"/>
<path d="M10.6602 22.8581H12.1902V24.3781H13.7102V22.8581H19.8102V24.3781H21.3302V22.8581H22.8602V21.3281H10.6602V22.8581Z" fill="white"/>
<path d="M15.2395 1.52051H13.7095V3.05051H15.2395V1.52051Z" fill="white"/>
<path d="M13.7099 30.4795H12.1899V31.9995H13.7099V30.4795Z" fill="white"/>
<path d="M12.1906 27.4268H9.14062V28.9468H12.1906V27.4268Z" fill="white"/>
<path d="M13.7102 4.57176V3.05176H12.1902V4.57176H10.6602V7.62176H12.1902V6.10176H21.3302V7.62176H22.8602V4.57176H21.3302V3.05176H19.8102V4.57176H13.7102Z" fill="white"/>
<path d="M10.6596 7.62012H9.13963V12.1901H7.61963V13.7201H9.13963V18.2901H7.61963V19.8101H9.13963V21.3301H10.6596V7.62012Z" fill="white"/>
<path d="M9.13984 28.9482H6.08984V30.4782H9.13984V28.9482Z" fill="white"/>
<path d="M7.61984 13.7188H6.08984V15.2387H7.61984V13.7188Z" fill="white"/>
<path d="M6.09031 30.4795H4.57031V31.9995H6.09031V30.4795Z" fill="white"/>
<path d="M6.09031 15.2393H4.57031V22.8593H6.09031V21.3293H7.62031V19.8093H6.09031V15.2393Z" fill="white"/>
<path d="M4.56953 28.9482H1.51953V30.4782H4.56953V28.9482Z" fill="white"/>
<path d="M1.52 30.4795H0V31.9995H1.52V30.4795Z" fill="white"/>
</svg>
