<svg width="32" height="32" viewBox="0 0 32 32" fill="none" xmlns="http://www.w3.org/2000/svg">
<path d="M31.9988 28.9463H30.4688V30.4762H31.9988V28.9463Z" fill="white"/>
<path d="M30.4697 1.52051H28.9497V3.0504H27.4297V4.57029H28.9497V6.10018H30.4697V4.57029H31.9997V3.0504H30.4697V1.52051Z" fill="white"/>
<path d="M30.4707 22.8574H28.9507V24.3773H30.4707V22.8574Z" fill="white"/>
<path d="M28.9497 24.3789H27.4297V25.9088H28.9497V24.3789Z" fill="white"/>
<path d="M27.4309 22.8574H25.9009V24.3773H27.4309V22.8574Z" fill="white"/>
<path d="M24.3806 32.0003V30.4804H25.9006V28.9506H24.3806V27.4307H22.8506V28.9506H21.3306V30.4804H22.8506V32.0003H24.3806Z" fill="white"/>
<path d="M22.8506 1.52051H21.3306V3.0504H22.8506V1.52051Z" fill="white"/>
<path d="M18.2804 0H16.7604V1.51989H18.2804V0Z" fill="white"/>
<path d="M10.6606 1.52051H9.14062V3.0504H10.6606V1.52051Z" fill="white"/>
<path d="M9.13963 27.4307H7.61963V28.9506H9.13963V27.4307Z" fill="white"/>
<path d="M4.56906 24.3789H3.03906V25.9088H4.56906V24.3789Z" fill="white"/>
<path d="M3.041 30.4766H1.521V31.9965H3.041V30.4766Z" fill="white"/>
<path d="M3.04087 25.9044H1.52087V27.4243H3.04087V25.9044Z" fill="white"/>
<path d="M3.041 22.8574H1.521V24.3773H3.041V22.8574Z" fill="white"/>
<path d="M1.52 4.56967H3.04V3.04978H4.57V1.51989H3.04V0H1.52V1.51989H0V3.04978H1.52V4.56967Z" fill="white"/>
<path d="M1.52 24.3789H0V25.9088H1.52V24.3789Z" fill="white"/>
<path d="M28.9497 21.3262H27.4297V22.8561H28.9497V21.3262Z" fill="white"/>
<path d="M28.9497 15.2411H27.4297V16.761H28.9497V15.2411Z" fill="white"/>
<path d="M28.9497 9.14258H27.4297V10.6725H28.9497V9.14258Z" fill="white"/>
<path d="M27.4309 16.7666H25.9009V18.2965H27.4309V16.7666Z" fill="white"/>
<path d="M27.431 7.62708H25.901V9.14697H27.431V7.62708Z" fill="white"/>
<path d="M25.9002 18.293H24.3802V19.8129H25.9002V18.293Z" fill="white"/>
<path d="M25.9002 6.10632H24.3802V7.62621H25.9002V6.10632Z" fill="white"/>
<path d="M24.379 19.8136H22.849V21.3335H24.379V19.8136Z" fill="white"/>
<path d="M22.8506 21.335H21.3306V22.8649H22.8506V21.335Z" fill="white"/>
<path d="M22.8506 15.2411H21.3306V16.761H22.8506V15.2411Z" fill="white"/>
<path d="M22.8506 9.14258H21.3306V10.6725H22.8506V9.14258Z" fill="white"/>
<path d="M21.3301 22.8652H19.8101V24.3851H21.3301V22.8652Z" fill="white"/>
<path d="M21.3299 16.7618H19.8099V19.8116H21.3299V16.7618Z" fill="white"/>
<path d="M21.3299 7.62708H19.8099V9.14697H21.3299V7.62708Z" fill="white"/>
<path d="M19.8112 19.8136H18.2812V22.8634H19.8112V19.8136Z" fill="white"/>
<path d="M18.2803 22.8652H16.7603V27.4349H18.2803V25.915H19.8103V24.3851H18.2803V22.8652Z" fill="white"/>
<path d="M16.7609 27.4326H13.7109V28.9525H16.7609V27.4326Z" fill="white"/>
<path d="M13.7116 22.8652H12.1916V24.3851H10.6616V25.915H12.1916V27.4349H13.7116V22.8652Z" fill="white"/>
<path d="M12.1915 19.8136H10.6615V22.8634H12.1915V19.8136Z" fill="white"/>
<path d="M10.6606 22.8652H9.14062V24.3851H10.6606V22.8652Z" fill="white"/>
<path d="M10.6606 16.7666H9.14062V19.8164H10.6606V16.7666Z" fill="white"/>
<path d="M10.6606 7.62708H9.14062V9.14697H10.6606V7.62708Z" fill="white"/>
<path d="M9.13963 21.335H7.61963V22.8649H9.13963V21.335Z" fill="white"/>
<path d="M9.13975 15.2411H7.61975V16.761H9.13975V15.2411Z" fill="white"/>
<path d="M9.13975 9.14258H7.61975V10.6725H9.13975V9.14258Z" fill="white"/>
<path d="M10.6585 6.10509V7.62498H12.1885V6.10509H18.2785V7.62498H19.8085V6.10509H24.3785V4.5752H6.0885V6.10509H10.6585Z" fill="white"/>
<path d="M7.6185 19.8136H6.0885V21.3335H7.6185V19.8136Z" fill="white"/>
<path d="M6.09031 18.293H4.57031V19.8129H6.09031V18.293Z" fill="white"/>
<path d="M6.09031 6.10632H4.57031V7.62621H6.09031V6.10632Z" fill="white"/>
<path d="M4.56906 16.7666H3.03906V18.2965H4.56906V16.7666Z" fill="white"/>
<path d="M4.56906 7.62708H3.03906V9.14697H4.56906V7.62708Z" fill="white"/>
<path d="M3.04087 15.2411H1.52087V16.761H3.04087V15.2411Z" fill="white"/>
<path d="M1.52 13.7135H6.09V15.2434H7.62V13.7135H22.85V15.2434H24.38V13.7135H28.95V15.2434H30.47V10.6737H28.95V12.1936H24.38V10.6737H22.85V12.1936H7.62V10.6737H6.09V12.1936H1.52V10.6737H0V15.2434H1.52V13.7135Z" fill="white"/>
<path d="M3.04087 9.14258H1.52087V10.6725H3.04087V9.14258Z" fill="white"/>
</svg>
