<svg width="32" height="32" viewBox="0 0 32 32" fill="none" xmlns="http://www.w3.org/2000/svg">
<path d="M30.4797 6.10156H28.9597V7.62148H27.4297V9.15139H28.9597V10.6713H30.4797V9.15139H31.9997V7.62148H30.4797V6.10156Z" fill="white"/>
<path d="M30.4798 18.2916H28.9598V16.7717H25.9098V10.672H15.2399V16.7717H4.56997V18.2916H3.04998V19.8115H1.52999V21.3414H0V22.8613H4.56997V32.0008H27.4298V22.8613H31.9998V19.8115H30.4798V18.2916ZM16.7599 12.1919H24.3798V16.7717H16.7599V12.1919ZM18.2899 30.4809H6.09996V22.8613H16.7599V21.3414H18.2899V30.4809ZM25.9098 30.4809H19.8099V18.2916H25.9098V30.4809Z" fill="white"/>
<path d="M21.3386 3.04688H19.8086V4.57679H21.3386V3.04688Z" fill="white"/>
<path d="M16.7598 0V7.61958H24.3797V6.09966H22.8597V4.57975H21.3397V6.09966H18.2898V3.04983H19.8097V1.52992H18.2898V0H16.7598Z" fill="white"/>
<path d="M13.7214 7.61719H12.1914V12.1869H13.7214V7.61719Z" fill="white"/>
<path d="M12.1909 12.1953H10.6709V13.7252H12.1909V12.1953Z" fill="white"/>
<path d="M12.1909 6.10156H10.6709V7.62148H12.1909V6.10156Z" fill="white"/>
<path d="M10.6706 13.7188H6.10059V15.2387H10.6706V13.7188Z" fill="white"/>
<path d="M10.6706 4.57812H6.10059V6.09804H10.6706V4.57812Z" fill="white"/>
<path d="M6.1003 12.1953H4.57031V13.7252H6.1003V12.1953Z" fill="white"/>
<path d="M6.1003 6.10156H4.57031V7.62148H6.1003V6.10156Z" fill="white"/>
<path d="M4.56979 7.61719H3.0498V12.1869H4.56979V7.61719Z" fill="white"/>
<path d="M3.05125 1.53125H1.53127V3.05117H3.05125V1.53125Z" fill="white"/>
</svg>
