<svg width="452" height="452" viewBox="0 0 452 452" fill="none" xmlns="http://www.w3.org/2000/svg">
<g opacity="0.02">
<path d="M430.529 86.2363H409.059V107.702H387.448V129.31H409.059V150.776H430.529V129.31H451.999V107.702H430.529V86.2363Z" fill="white"/>
<path d="M430.53 258.379H409.06V236.913H365.979V150.766H215.265V236.913H64.5513V258.379H43.0812V279.845H21.6112V301.452H0V322.919H64.5513V451.998H387.449V322.919H452V279.845H430.53V258.379ZM236.735 172.232H344.367V236.913H236.735V172.232ZM258.346 430.532H86.1625V322.919H236.735V301.452H258.346V430.532ZM365.979 430.532H279.816V258.379H365.979V430.532Z" fill="white"/>
<path d="M301.421 43.0723H279.81V64.6797H301.421V43.0723Z" fill="white"/>
<path d="M236.729 0V107.613H344.361V86.1471H322.891V64.681H301.421V86.1471H258.34V43.0736H279.81V21.6074H258.34V0H236.729Z" fill="white"/>
<path d="M193.827 107.592H172.216V172.132H193.827V107.592Z" fill="white"/>
<path d="M172.189 172.223H150.719V193.83H172.189V172.223Z" fill="white"/>
<path d="M172.189 86.2363H150.719V107.702H172.189V86.2363Z" fill="white"/>
<path d="M150.714 193.754H86.1624V215.22H150.714V193.754Z" fill="white"/>
<path d="M150.714 64.7051H86.1624V86.1712H150.714V64.7051Z" fill="white"/>
<path d="M86.1684 172.223H64.5571V193.83H86.1684V172.223Z" fill="white"/>
<path d="M86.1684 86.2363H64.5571V107.702H86.1684V86.2363Z" fill="white"/>
<path d="M64.5515 107.592H43.0815V172.132H64.5515V107.592Z" fill="white"/>
<path d="M43.0989 21.6348H21.6289V43.1009H43.0989V21.6348Z" fill="white"/>
</g>
</svg>
