<svg width="488" height="488" viewBox="0 0 488 488" fill="none" xmlns="http://www.w3.org/2000/svg">
<g opacity="0.02" clip-path="url(#clip0_303_6927)">
<path d="M488.003 471.416H441.491V494.748H488.003V471.416Z" fill="white"/>
<path d="M418.298 332.134H394.966V355.314H418.298V378.646H441.478V262.441H418.298V332.134Z" fill="white"/>
<path d="M418.306 471.416H371.793V494.748H418.306V471.416Z" fill="white"/>
<path d="M418.298 239.207H394.966V262.387H418.298V239.207Z" fill="white"/>
<path d="M371.781 448.301H325.269V471.481H371.781V448.301Z" fill="white"/>
<path d="M348.605 355.238H371.785V332.058H394.965V308.878H371.785V239.185H394.965V215.853H371.785V146.16H348.605V355.238Z" fill="white"/>
<path d="M325.276 308.904H302.096V332.084H325.276V308.904Z" fill="white"/>
<path d="M325.276 262.441H302.096V285.621H325.276V262.441Z" fill="white"/>
<path d="M302.106 448.301H278.774V494.813H302.106V448.301Z" fill="white"/>
<path d="M302.102 401.838H209.077V425.17H302.102V401.838Z" fill="white"/>
<path d="M302.106 53.2363H278.774V76.5688H302.106V53.2363Z" fill="white"/>
<path d="M278.759 30H232.399V53.18H278.759V30Z" fill="white"/>
<path d="M302.102 169.34H278.769V146.16H232.409V169.34H255.589V192.673H232.409V169.34H209.077V215.853H232.409V239.185H278.769V215.853H302.102V169.34Z" fill="white"/>
<path d="M232.409 448.301H209.077V494.813H232.409V448.301Z" fill="white"/>
<path d="M162.567 378.588H185.9V401.768H209.08V378.588H302.105V401.768H325.285V378.588H348.617V355.256H162.567V378.588Z" fill="white"/>
<path d="M232.409 53.2363H209.077V76.5688H232.409V53.2363Z" fill="white"/>
<path d="M185.907 448.301H139.395V471.481H185.907V448.301Z" fill="white"/>
<path d="M209.08 99.762V76.582H185.9V99.762H162.567V146.275H185.9V123.095H325.285V146.275H348.617V99.762H325.285V76.582H302.105V99.762H209.08Z" fill="white"/>
<path d="M162.567 146.16H139.387V215.853H116.207V239.185H139.387V308.878H116.207V332.058H139.387V355.238H162.567V146.16Z" fill="white"/>
<path d="M139.383 471.416H92.8701V494.748H139.383V471.416Z" fill="white"/>
<path d="M116.203 239.207H92.8701V262.387H116.203V239.207Z" fill="white"/>
<path d="M92.8773 262.441H69.6973V378.646H92.8773V355.314H116.21V332.134H92.8773V262.441Z" fill="white"/>
<path d="M69.6854 471.416H23.1729V494.748H69.6854V471.416Z" fill="white"/>
</g>
<defs>
<clipPath id="clip0_303_6927">
<rect width="488" height="488" fill="white"/>
</clipPath>
</defs>
</svg>
