<svg width="488" height="488" viewBox="0 0 488 488" fill="none" xmlns="http://www.w3.org/2000/svg">
<g opacity="0.02">
<path d="M465.991 423.621H444.762V444.849H465.991V423.621Z" fill="white"/>
<path d="M444.775 43.0957H423.685V64.3234H402.594V85.4123H423.685V106.64H444.775V85.4123H466.004V64.3234H444.775V43.0957Z" fill="white"/>
<path d="M444.787 339.15H423.697V360.239H444.787V339.15Z" fill="white"/>
<path d="M423.685 360.25H402.594V381.478H423.685V360.25Z" fill="white"/>
<path d="M402.613 339.15H381.384V360.239H402.613V339.15Z" fill="white"/>
<path d="M360.289 465.999V444.91H381.38V423.683H360.289V402.594H339.06V423.683H317.97V444.91H339.06V465.999H360.289Z" fill="white"/>
<path d="M339.06 43.0957H317.969V64.3234H339.06V43.0957Z" fill="white"/>
<path d="M275.646 21.9922H254.555V43.0811H275.646V21.9922Z" fill="white"/>
<path d="M169.919 43.0957H148.829V64.3234H169.919V43.0957Z" fill="white"/>
<path d="M148.817 402.594H127.727V423.683H148.817V402.594Z" fill="white"/>
<path d="M85.3972 360.25H64.168V381.478H85.3972V360.25Z" fill="white"/>
<path d="M64.1922 444.867H43.1018V465.956H64.1922V444.867Z" fill="white"/>
<path d="M64.1922 381.424H43.1018V402.513H64.1922V381.424Z" fill="white"/>
<path d="M64.1922 339.15H43.1018V360.239H64.1922V339.15Z" fill="white"/>
<path d="M43.0904 85.3977H64.1809V64.3088H85.4101V43.0811H64.1809V21.9922H43.0904V43.0811H22V64.3088H43.0904V85.3977Z" fill="white"/>
<path d="M43.0904 360.25H22V381.478H43.0904V360.25Z" fill="white"/>
<path d="M423.685 317.904H402.594V339.132H423.685V317.904Z" fill="white"/>
<path d="M423.685 233.428H402.595V254.517H423.685V233.428Z" fill="white"/>
<path d="M423.685 148.812H402.595V170.04H423.685V148.812Z" fill="white"/>
<path d="M402.613 254.6H381.384V275.827H402.613V254.6Z" fill="white"/>
<path d="M402.613 127.785H381.384V148.874H402.613V127.785Z" fill="white"/>
<path d="M381.373 275.775H360.282V296.864H381.373V275.775Z" fill="white"/>
<path d="M381.373 106.684H360.282V127.773H381.373V106.684Z" fill="white"/>
<path d="M360.265 296.877H339.036V317.966H360.265V296.877Z" fill="white"/>
<path d="M339.059 317.979H317.969V339.206H339.059V317.979Z" fill="white"/>
<path d="M339.058 233.428H317.968V254.517H339.058V233.428Z" fill="white"/>
<path d="M339.058 148.812H317.968V170.04H339.058V148.812Z" fill="white"/>
<path d="M317.959 339.223H296.868V360.312H317.959V339.223Z" fill="white"/>
<path d="M317.959 254.529H296.868V296.846H317.959V254.529Z" fill="white"/>
<path d="M317.959 127.785H296.868V148.874H317.959V127.785Z" fill="white"/>
<path d="M296.887 296.877H275.658V339.194H296.887V296.877Z" fill="white"/>
<path d="M275.646 339.223H254.555V402.628H275.646V381.539H296.875V360.312H275.646V339.223Z" fill="white"/>
<path d="M254.563 402.596H212.243V423.685H254.563V402.596Z" fill="white"/>
<path d="M212.251 339.223H191.16V360.312H169.931V381.539H191.16V402.628H212.251V339.223Z" fill="white"/>
<path d="M191.16 296.877H169.931V339.194H191.16V296.877Z" fill="white"/>
<path d="M169.919 339.223H148.829V360.312H169.919V339.223Z" fill="white"/>
<path d="M169.919 254.6H148.829V296.916H169.919V254.6Z" fill="white"/>
<path d="M169.919 127.785H148.829V148.874H169.919V127.785Z" fill="white"/>
<path d="M148.817 317.979H127.727V339.206H148.817V317.979Z" fill="white"/>
<path d="M148.817 233.428H127.727V254.517H148.817V233.428Z" fill="white"/>
<path d="M148.817 148.812H127.727V170.04H148.817V148.812Z" fill="white"/>
<path d="M169.89 106.665V127.754H191.119V106.665H275.62V127.754H296.849V106.665H360.259V85.4375H106.48V106.665H169.89Z" fill="white"/>
<path d="M127.709 296.877H106.48V317.966H127.709V296.877Z" fill="white"/>
<path d="M106.505 275.775H85.4143V296.864H106.505V275.775Z" fill="white"/>
<path d="M106.505 106.684H85.4143V127.773H106.505V106.684Z" fill="white"/>
<path d="M85.3972 254.6H64.168V275.827H85.3972V254.6Z" fill="white"/>
<path d="M85.3972 127.785H64.168V148.874H85.3972V127.785Z" fill="white"/>
<path d="M64.1927 233.428H43.1023V254.517H64.1927V233.428Z" fill="white"/>
<path d="M43.0904 212.234H106.501V233.462H127.73V212.234H339.05V233.462H360.28V212.234H423.69V233.462H444.78V170.057H423.69V191.146H360.28V170.057H339.05V191.146H127.73V170.057H106.501V191.146H43.0904V170.057H22V233.462H43.0904V212.234Z" fill="white"/>
<path d="M64.1927 148.812H43.1023V170.04H64.1927V148.812Z" fill="white"/>
</g>
</svg>
