<svg width="32" height="32" viewBox="0 0 32 32" fill="none" xmlns="http://www.w3.org/2000/svg">
<rect x="18.3881" y="20.332" width="2.05552" height="2.05552" fill="currentColor"/>
<rect x="18.3881" y="18.2793" width="2.05552" height="2.05552" fill="currentColor"/>
<rect x="18.3881" y="16.2256" width="2.05552" height="2.05552" fill="currentColor"/>
<rect x="18.3881" y="14.166" width="2.05552" height="2.05552" fill="currentColor"/>
<rect x="20.4434" y="12.1123" width="2.05552" height="2.05552" fill="currentColor"/>
<rect x="22.4994" y="12.1123" width="2.05552" height="2.05552" fill="currentColor"/>
<rect x="26.6101" y="16.2256" width="2.05552" height="2.05552" fill="currentColor"/>
<rect x="24.5547" y="17.249" width="2.05552" height="2.05552" fill="currentColor"/>
<rect x="26.6102" y="14.166" width="2.05552" height="2.05552" fill="currentColor"/>
<rect x="24.5547" y="12.1123" width="2.05552" height="2.05552" fill="currentColor"/>
<rect x="22.4994" y="17.249" width="2.05552" height="2.05552" fill="currentColor"/>
<rect x="20.4434" y="17.249" width="2.05552" height="2.05552" fill="currentColor"/>
<rect x="20.4432" y="22.3926" width="2.05552" height="2.05552" fill="currentColor"/>
<rect x="22.4994" y="22.3926" width="2.05552" height="2.05552" fill="currentColor"/>
<rect x="24.5546" y="22.3926" width="2.05552" height="2.05552" fill="currentColor"/>
<rect x="26.6102" y="20.332" width="2.05552" height="2.05552" fill="currentColor"/>
<rect x="24.5552" y="8" width="2.05552" height="2.05552" fill="currentColor"/>
<rect x="22.4991" y="8" width="2.05552" height="2.05552" fill="currentColor"/>
<rect x="20.4438" y="8" width="2.05552" height="2.05552" fill="currentColor"/>
<rect x="3.99988" y="10.0537" width="2.05552" height="14.3886" fill="currentColor"/>
<rect x="6.05505" y="8" width="4.11103" height="2.05552" fill="currentColor"/>
<rect x="10.1664" y="8" width="2.05552" height="2.05552" fill="currentColor"/>
<rect x="12.2216" y="10.0537" width="2.05552" height="2.05552" fill="currentColor"/>
<rect x="12.2217" y="12.1133" width="2.05552" height="2.05552" fill="currentColor"/>
<rect x="10.1664" y="14.167" width="2.05552" height="2.05552" fill="currentColor"/>
<rect x="12.2216" y="14.167" width="2.05552" height="2.05552" fill="currentColor"/>
<rect x="14.2772" y="18.2803" width="2.05552" height="2.05552" fill="currentColor"/>
<rect x="14.2772" y="16.2197" width="2.05552" height="2.05552" fill="currentColor"/>
<rect x="14.2772" y="20.333" width="2.05552" height="2.05552" fill="currentColor"/>
<rect x="12.2217" y="22.3867" width="2.05552" height="2.05552" fill="currentColor"/>
<rect x="10.1664" y="22.3867" width="2.05552" height="2.05552" fill="currentColor"/>
<rect x="6.05505" y="22.3867" width="4.11103" height="2.05552" fill="currentColor"/>
<rect x="6.05505" y="14.167" width="4.11103" height="2.05552" fill="currentColor"/>
</svg>
