<svg width="32" height="32" viewBox="0 0 32 32" fill="none" xmlns="http://www.w3.org/2000/svg">
<path d="M25.6976 13.0906V11.1512H24.7279V9.2118H23.7582V8.2421H22.7885V7.2724H20.8491V6.3027H18.9097V5.33301H13.0916V6.3027H11.1522V7.2724H9.21277V8.2421H8.24308V9.2118H7.27338V11.1512H6.30368V13.0906H5.33398V18.9088H6.30368V20.8482H7.27338V22.7876H8.24308V23.7573H9.21277V24.7269H11.1522V25.6966H13.0916V26.6663H18.9097V25.6966H20.8491V24.7269H22.7885V23.7573H23.7582V22.7876H24.7279V20.8482H25.6976V18.9088H26.6673V13.0906H25.6976ZM24.7279 18.9088H23.7582V20.8482H22.7885V22.7876H20.8491V23.7573H18.9097V24.7269H16.9703L13.0916 23.7573H11.1522V22.7876H9.21277V20.8482H8.24308V18.9088H7.27338V13.0906H8.24308V11.1512H9.21277V9.2118H11.1522V8.2421H13.0916V7.2724H18.9097V8.2421H20.8491V9.2118H22.7885V11.1512H23.7582V13.0906H24.7279V18.9088Z" fill="currentColor"/>
<path fill-rule="evenodd" clip-rule="evenodd" d="M9.21289 9.21283V7.27344H10.1826H11.1523V9.21283H12.122V11.1522H14.0614V12.1219H16.0008V13.0916H21.819V12.1219H23.7583V11.1522H25.6977V12.1219V13.0916H23.7583V14.0613H21.819V15.031H16.0008V14.0613H14.0614V13.0916H12.122V12.1219H11.1523V11.1522H10.1826V9.21283H9.21289Z" fill="currentColor"/>
<path fill-rule="evenodd" clip-rule="evenodd" d="M9.21289 22.7872V24.7266H10.1826H11.1523V22.7872H12.122V20.8478H14.0614V19.8781H16.0008V18.9084H21.819V19.8781H23.7583V20.8478H25.6977V19.8781V18.9084H23.7583V17.9387H21.819V16.969H16.0008V17.9387H14.0614V18.9084H12.122V19.8781H11.1523V20.8478H10.1826V22.7872H9.21289Z" fill="currentColor"/>
<path fill-rule="evenodd" clip-rule="evenodd" d="M13.0918 25.6977H15.0312V24.728H16.9706V23.7583H17.9403V22.7886H18.91V20.8492H19.8797V18.9098H20.8494V13.0916H19.8797V11.1522H18.91V9.21283H17.9403V8.24313H16.9706V7.27344H15.0312V8.24313V9.21283H16.9706V11.1522H17.9403V13.0916H18.91V18.9098H17.9403V20.8492H16.9706V22.7886H15.0312V23.7583H13.0918V24.728V25.6977Z" fill="currentColor"/>
</svg>
