<svg width="32" height="32" viewBox="0 0 32 32" fill="none" xmlns="http://www.w3.org/2000/svg">
<path d="M8.48598 6.72949H6.72717V8.4883H8.48598V6.72949Z" fill="currentColor"/>
<path d="M25.6813 6.72949H23.9225V8.4883H25.6813V6.72949Z" fill="currentColor"/>
<path d="M8.48598 23.9248H6.72717V25.6836H8.48598V23.9248Z" fill="currentColor"/>
<path d="M25.6813 23.9248H23.9225V25.6836H25.6813V23.9248Z" fill="currentColor"/>
<path d="M7.09182 8.12402H5.33301V23.9253H7.09182V8.12402Z" fill="currentColor"/>
<path d="M27.0762 8.12402H25.3174V23.9253H27.0762V8.12402Z" fill="currentColor"/>
<path d="M23.922 5.33105H8.12073V7.08986H23.922V5.33105Z" fill="currentColor"/>
<path d="M23.922 25.3115H8.12073V27.0703H23.922V25.3115Z" fill="currentColor"/>
<path d="M12.2038 13.2295H10.4449V18.8064H12.2038V13.2295Z" fill="currentColor"/>
<path d="M21.9625 13.2295H20.2037V18.8064H21.9625V13.2295Z" fill="currentColor"/>
<path d="M18.8109 10.4482H13.234V12.2071H18.8109V10.4482Z" fill="currentColor"/>
<path d="M18.8109 20.2061H13.234V21.9649H18.8109V20.2061Z" fill="currentColor"/>
<path d="M13.5983 11.8428H11.8395V13.6016H13.5983V11.8428Z" fill="currentColor"/>
<path d="M20.5697 11.8428H18.8109V13.6016H20.5697V11.8428Z" fill="currentColor"/>
<path d="M13.5983 18.8115H11.8395V20.5703H13.5983V18.8115Z" fill="currentColor"/>
<path d="M20.5697 18.8115H18.8109V20.5703H20.5697V18.8115Z" fill="currentColor"/>
<path d="M22.9944 9.0498H21.1354V10.9088H22.9944V9.0498Z" fill="currentColor"/>
</svg>
