<svg width="32" height="32" viewBox="0 0 32 32" fill="none" xmlns="http://www.w3.org/2000/svg">
<path d="M11.9429 11.3643V29.3353H18.3197V18.3208H16.5805V27.5962H13.682V13.1034H16.5805V14.8425H18.3197V13.1034H25.8559V11.3643H11.9429Z" fill="currentColor"/>
<path d="M27.595 14.8447V27.5984H24.6964V18.323H22.9573V29.3375H29.3341V14.8447H27.595Z" fill="currentColor"/>
<path d="M2.6665 11.3643V29.3353H9.62303V11.3643H2.6665ZM7.88392 27.5962H4.40562V13.1034H7.88392V27.5962Z" fill="currentColor"/>
<path d="M7.88503 2.66895H4.40674V4.40806H7.88503V2.66895Z" fill="currentColor"/>
<path d="M7.88503 7.8877H4.40674V9.62681H7.88503V7.8877Z" fill="currentColor"/>
<path d="M4.40587 4.40723H2.66675V7.88552H4.40587V4.40723Z" fill="currentColor"/>
<path d="M9.6234 4.40723H7.88428V7.88552H9.6234V4.40723Z" fill="currentColor"/>
<path d="M27.5951 13.1064H25.856V14.8456H27.5951V13.1064Z" fill="currentColor"/>
<path d="M22.9565 16.583H18.3188V18.3221H22.9565V16.583Z" fill="currentColor"/>
</svg>
