<svg width="25" height="24" viewBox="0 0 25 24" fill="none" xmlns="http://www.w3.org/2000/svg">
<path d="M21.6777 17.3516H20.1482V15.822H21.6777V17.3516Z" fill="white"/>
<path d="M21.6777 18.3516H20.1482V16.822H21.6777V18.3516Z" fill="white"/>
<path d="M21.6777 15.8203H20.1482V14.2907H21.6777V15.8203Z" fill="white"/>
<path d="M21.6777 14.2969H20.1482V12.7673H21.6777V14.2969Z" fill="white"/>
<path d="M21.6777 12.7656H20.1482V11.236H21.6777V12.7656Z" fill="white"/>
<path d="M21.6777 11.2344H20.1482V9.7048H21.6777V11.2344Z" fill="white"/>
<path d="M21.6777 9.70312H20.1482V8.17355H21.6777V9.70312Z" fill="white"/>
<path d="M21.6777 8.17969H20.1482V6.65011H21.6777V8.17969Z" fill="white"/>
<path d="M20.1484 6.64844H18.6189V5.11886H20.1484V6.64844Z" fill="white"/>
<path d="M6.38281 6.64844H4.85323V5.11886H6.38281V6.64844Z" fill="white"/>
<path d="M7.91016 6.64844H6.38058V5.11886H7.91016V6.64844Z" fill="white"/>
<path d="M9.44141 6.64844H7.91183V5.11886H9.44141V6.64844Z" fill="white"/>
<path d="M10.9707 6.64844H9.44113V5.11886H10.9707V6.64844Z" fill="white"/>
<path d="M18.6172 6.64844H17.0876V5.11886H18.6172V6.64844Z" fill="white"/>
<path d="M15.5586 5.11719H17.0882V6.64677H15.5586V5.11719Z" fill="white"/>
<path d="M14.0293 5.11719H15.5589V6.64677H14.0293V5.11719Z" fill="white"/>
<path d="M18.6172 19.8828H17.0876V18.3532H18.6172V19.8828Z" fill="white"/>
<path d="M20.1484 19.8828H18.6189V18.3532H20.1484V19.8828Z" fill="white"/>
<path d="M10.9707 18.3516H12.5003V19.8811H10.9707V18.3516Z" fill="white"/>
<path d="M9.44141 18.3516H10.971V19.8811H9.44141V18.3516Z" fill="white"/>
<path d="M7.91211 18.3516H9.44169V19.8811H7.91211V18.3516Z" fill="white"/>
<path d="M6.38086 18.3516H7.91044V19.8811H6.38086V18.3516Z" fill="white"/>
<path d="M15.5586 18.3516H17.0882V19.8811H15.5586V18.3516Z" fill="white"/>
<path d="M14.0293 18.3516H15.5589V19.8811H14.0293V18.3516Z" fill="white"/>
<path d="M12.5 18.3516H14.0296V19.8811H12.5V18.3516Z" fill="white"/>
<path d="M6.38086 19.8828H4.85128V18.3532H6.38086V19.8828Z" fill="white"/>
<path d="M4.85156 17.3516H3.32198V15.822H4.85156V17.3516Z" fill="white"/>
<path d="M4.85156 18.3516H3.32198V16.822H4.85156V18.3516Z" fill="white"/>
<path d="M4.85156 15.8203H3.32198V14.2907H4.85156V15.8203Z" fill="white"/>
<path d="M4.85156 14.2969H3.32198V12.7673H4.85156V14.2969Z" fill="white"/>
<path d="M4.85156 12.7656H3.32198V11.236H4.85156V12.7656Z" fill="white"/>
<path d="M4.85156 11.2344H3.32198V9.7048H4.85156V11.2344Z" fill="white"/>
<path d="M4.85156 9.70312H3.32198V8.17355H4.85156V9.70312Z" fill="white"/>
<path d="M4.85156 8.17969H3.32198V6.65011H4.85156V8.17969Z" fill="white"/>
<path d="M12.5 6.64844H10.9704V5.11886H12.5V6.64844Z" fill="white"/>
<path d="M14.0293 6.64844H12.4997V5.11886H14.0293V6.64844Z" fill="white"/>
<path d="M7.91016 9.70312H6.38058V8.17355H7.91016V9.70312Z" fill="white"/>
<path d="M9.44141 11.2344H7.91183V9.7048H9.44141V11.2344Z" fill="white"/>
<path d="M10.9707 12.7656H9.44113V11.236H10.9707V12.7656Z" fill="white"/>
<path d="M18.6172 9.70312H17.0876V8.17355H18.6172V9.70312Z" fill="white"/>
<path d="M15.5586 9.70312H17.0882V11.2327H15.5586V9.70312Z" fill="white"/>
<path d="M14.0293 11.2344H15.5589V12.764H14.0293V11.2344Z" fill="white"/>
<path d="M12.5 14.2969H10.9704V12.7673H12.5V14.2969Z" fill="white"/>
<path d="M14.0293 14.2969H12.4997V12.7673H14.0293V14.2969Z" fill="white"/>
</svg>
