<svg width="24" height="24" viewBox="0 0 24 24" fill="none" xmlns="http://www.w3.org/2000/svg">
<path d="M22.86 13.7175H21.7125V12.5775H20.5725V11.43H19.4325V0H8.0025V6.8625H6.855V4.575H4.575V1.1475H3.4275V4.575H1.14V6.8625H0V24H22.86V17.145H24V14.8575H22.86V13.7175ZM2.2875 5.715H5.715V6.8625H2.2875V5.715ZM8.0025 14.8575H6.855V17.145H8.0025V22.86H1.14V8.0025H8.0025V14.8575ZM9.1425 1.1475H18.285V9.15H17.145V8.0025H15.9975V6.8625H14.8575V8.0025H13.7175V9.15H12.57V10.29H11.43V11.43H10.29V12.5775H9.1425V1.1475ZM21.7125 22.86H18.285V18.2925H17.145V22.86H13.7175V21.72H14.8575V20.5725H13.7175V18.2925H12.57V22.86H9.1425V14.8575H10.29V13.7175H11.43V12.5775H12.57V11.43H13.7175V10.29H14.8575V9.15H15.9975V10.29H17.145V11.43H18.285V12.5775H19.4325V13.7175H20.5725V14.8575H21.7125V22.86Z" fill="white" fill-opacity="0.5"/>
<path d="M19.4322 14.8564H11.4297V16.0039H19.4322V14.8564Z" fill="white" fill-opacity="0.5"/>
<path d="M17.1462 17.1455H13.7188V18.293H17.1462V17.1455Z" fill="white" fill-opacity="0.5"/>
<path d="M17.1439 2.28613H14.8564V4.57363H17.1439V2.28613Z" fill="white" fill-opacity="0.5"/>
<path d="M12.5691 5.71582H10.2891V8.00332H12.5691V5.71582Z" fill="white" fill-opacity="0.5"/>
<path d="M12.5691 2.28613H10.2891V4.57363H12.5691V2.28613Z" fill="white" fill-opacity="0.5"/>
<path d="M5.71426 19.4326H3.42676V21.7201H5.71426V19.4326Z" fill="white" fill-opacity="0.5"/>
<path d="M5.71426 14.8564H3.42676V17.1439H5.71426V14.8564Z" fill="white" fill-opacity="0.5"/>
<path d="M5.71426 10.2891H3.42676V12.5766H5.71426V10.2891Z" fill="white" fill-opacity="0.5"/>
</svg>
